<?xml version="1.0" encoding="utf-8"?>
<!-- Generator: Adobe Illustrator 24.0.3, SVG Export Plug-In . SVG Version: 6.00 Build 0)  -->
<svg version="1.1" id="Capa_1" xmlns="http://www.w3.org/2000/svg" xmlns:xlink="http://www.w3.org/1999/xlink" x="0px" y="0px"
	 viewBox="0 0 835 143.2" style="enable-background:new 0 0 1530 143.2;" xml:space="preserve">
<style type="text/css">
	.st0{fill:#D0D8E1;}
</style>
<g id="lines_2" transform="translate(-390 -2496)">
	<g id="Componente_41_304" transform="translate(390 2496)">
		<g id="Grupo_744">
			<path id="Trazado_969" class="st0" d="M139.2,41.8V60L69.8,18.2L0,60.2V42L69.8,0L139.2,41.8z"/>
		</g>
		<g id="Grupo_745" transform="translate(0 41.518)">
			<path id="Trazado_970" class="st0" d="M139.2,41.8V60L69.8,18.2L0,60.2V42L69.8,0L139.2,41.8z"/>
		</g>
		<g id="Grupo_746" transform="translate(0 83.036)">
			<path id="Trazado_971" class="st0" d="M139.2,41.8V60L69.8,18.2L0,60.2V42L69.8,0L139.2,41.8z"/>
		</g>
	</g>
	<g id="Componente_41_305" transform="translate(529.075 2496)">
		<g id="Grupo_744-2">
			<path id="Trazado_969-2" class="st0" d="M139.2,41.8V60L69.8,18.2L0,60.2V42L69.8,0L139.2,41.8z"/>
		</g>
		<g id="Grupo_745-2" transform="translate(0 41.518)">
			<path id="Trazado_970-2" class="st0" d="M139.2,41.8V60L69.8,18.2L0,60.2V42L69.8,0L139.2,41.8z"/>
		</g>
		<g id="Grupo_746-2" transform="translate(0 83.036)">
			<path id="Trazado_971-2" class="st0" d="M139.2,41.8V60L69.8,18.2L0,60.2V42L69.8,0L139.2,41.8z"/>
		</g>
	</g>
	<g id="Componente_41_306" transform="translate(668.15 2496)">
		<g id="Grupo_744-3">
			<path id="Trazado_969-3" class="st0" d="M139.2,41.8V60L69.8,18.2L0,60.2V42L69.8,0L139.2,41.8z"/>
		</g>
		<g id="Grupo_745-3" transform="translate(0 41.518)">
			<path id="Trazado_970-3" class="st0" d="M139.2,41.8V60L69.8,18.2L0,60.2V42L69.8,0L139.2,41.8z"/>
		</g>
		<g id="Grupo_746-3" transform="translate(0 83.036)">
			<path id="Trazado_971-3" class="st0" d="M139.2,41.8V60L69.8,18.2L0,60.2V42L69.8,0L139.2,41.8z"/>
		</g>
	</g>
	<g id="Componente_41_307" transform="translate(807.225 2496)">
		<g id="Grupo_744-4">
			<path id="Trazado_969-4" class="st0" d="M139.2,41.8V60L69.8,18.2L0,60.2V42L69.8,0L139.2,41.8z"/>
		</g>
		<g id="Grupo_745-4" transform="translate(0 41.518)">
			<path id="Trazado_970-4" class="st0" d="M139.2,41.8V60L69.8,18.2L0,60.2V42L69.8,0L139.2,41.8z"/>
		</g>
		<g id="Grupo_746-4" transform="translate(0 83.036)">
			<path id="Trazado_971-4" class="st0" d="M139.2,41.8V60L69.8,18.2L0,60.2V42L69.8,0L139.2,41.8z"/>
		</g>
	</g>
	<g id="Componente_41_308" transform="translate(946.3 2496)">
		<g id="Grupo_744-5">
			<path id="Trazado_969-5" class="st0" d="M139.2,41.8V60L69.8,18.2L0,60.2V42L69.8,0L139.2,41.8z"/>
		</g>
		<g id="Grupo_745-5" transform="translate(0 41.518)">
			<path id="Trazado_970-5" class="st0" d="M139.2,41.8V60L69.8,18.2L0,60.2V42L69.8,0L139.2,41.8z"/>
		</g>
		<g id="Grupo_746-5" transform="translate(0 83.036)">
			<path id="Trazado_971-5" class="st0" d="M139.2,41.8V60L69.8,18.2L0,60.2V42L69.8,0L139.2,41.8z"/>
		</g>
	</g>
	<g id="Componente_41_309" transform="translate(1085.375 2496)">
		<g id="Grupo_744-6">
			<path id="Trazado_969-6" class="st0" d="M139.2,41.8V60L69.8,18.2L0,60.2V42L69.8,0L139.2,41.8z"/>
		</g>
		<g id="Grupo_745-6" transform="translate(0 41.518)">
			<path id="Trazado_970-6" class="st0" d="M139.2,41.8V60L69.8,18.2L0,60.2V42L69.8,0L139.2,41.8z"/>
		</g>
		<g id="Grupo_746-6" transform="translate(0 83.036)">
			<path id="Trazado_971-6" class="st0" d="M139.2,41.8V60L69.8,18.2L0,60.2V42L69.8,0L139.2,41.8z"/>
		</g>
	</g>
	
</g>
</svg>
