<svg width="25" height="25" xmlns="http://www.w3.org/2000/svg">
 <!-- Created with Method Draw - http://github.com/duopixel/Method-Draw/ -->

 <g>
  <title>background</title>
  <rect fill="#fff" id="canvas_background" height="27" width="27" y="-1" x="-1"/>
  <g display="none" overflow="visible" y="0" x="0" height="100%" width="100%" id="canvasGrid">
   <rect fill="url(#gridpattern)" stroke-width="0" y="1" x="1" height="19" width="21"/>
  </g>
 </g>
 <g>
  <title>Layer 1</title>
  <g stroke="null" id="svg_17">
   <path stroke="#7e94aa" stroke-width="2" stroke-miterlimit="10" fill="none" d="m12.837553,2.316253l3.54033,5.880345a0.384151,0.368066 0 0 0 0.253449,0.17641l6.932909,1.408016a0.384151,0.368066 0 0 1 0.205714,0.606547l-4.746202,5.045118a0.385288,0.369155 0 0 0 -0.096606,0.285306l0.745572,6.751508a0.384151,0.368066 0 0 1 -0.538721,0.3746l-6.478292,-2.76594a0.384151,0.368066 0 0 0 -0.312549,0l-6.478292,2.76594a0.384151,0.368066 0 0 1 -0.537585,-0.3746l0.745572,-6.751508a0.384151,0.368066 0 0 0 -0.096606,-0.285306l-4.746202,-5.045118a0.384151,0.368066 0 0 1 0.205714,-0.606547l6.932909,-1.408016a0.384151,0.368066 0 0 0 0.253449,-0.17641l3.54033,-5.880345a0.384151,0.368066 0 0 1 0.675106,0z" id="svg_15"/>
  </g>
  <polyline stroke-linecap="round" id="svg_22" points="13.088235294117645,12.225490196078429 13.166666666666664,12.225490196078429 " fill-opacity="null" stroke-opacity="null" stroke-width="4" stroke="#7e94aa" fill="none"/>
  <path d="m13.637255,15.04902c-0.156862,0 -0.378333,0.116569 -0.54902,0.156862c-0.152666,0.036039 -0.235293,0 -0.313725,0.078432l-0.078431,0.078431l-0.078431,0l-0.078431,0" id="svg_24" fill-opacity="null" stroke-opacity="null" stroke-width="4" stroke="#7e94aa" fill="none"/>
  <path d="m8.696078,19.205883c0.156863,-0.313726 0.235294,-0.627451 0.313725,-0.941177c0.078431,-0.313725 0.195783,-0.777081 0.235294,-1.09804c0.019166,-0.155687 0.078431,-0.470587 0.078431,-0.627451c0,-0.07843 0,-0.235294 0,-0.392157c0,-0.235293 -0.049683,-0.550782 -0.078431,-0.784313c-0.039512,-0.320958 -0.18106,-0.539102 -0.235294,-0.705882c-0.147534,-0.453694 -0.106608,-0.788365 -0.156862,-1.09804c-0.039729,-0.24482 -0.117135,-0.461063 -0.156863,-0.705882c-0.050253,-0.309674 0.156863,-0.705883 0.235294,-1.019608l0.078431,-0.156862" id="svg_25" fill-opacity="null" stroke-opacity="null" stroke-width="4" stroke="#7e94aa" fill="none"/>
  <path d="m4.617647,12.068627c0.078432,0 0.235294,0.078432 0.470588,0.156863c0.235294,0.078432 0.475765,0.147266 0.627451,0.235293c0.244587,0.141939 0.467752,0.244382 0.705883,0.313725c0.310484,0.090413 0.392157,0.078432 0.392157,0.156863c0,0.078431 0.156862,0.156862 0.156862,0.156862c0.078432,0.078432 0.164973,0.227947 0.235294,0.313725c0.179285,0.218693 0.330997,0.454501 0.54902,0.705883c0.256942,0.296256 0.365912,0.431863 0.470588,0.627451c0.188706,0.352602 0.156863,0.627451 0.156863,0.941176c0,0.313725 -0.066507,0.6337 -0.235294,0.941176c-0.220071,0.400898 -0.38864,0.670523 -0.470588,0.941175c-0.045457,0.150133 0,0.313726 0,0.392159c0,0.07843 0,0.235294 0,0.392157c0,0.156862 0,0.235294 0,0.313725c0,0.156864 0,0.235294 0,0.392157c0,0.156864 0,0.313726 0,0.392159c0,0.07843 0,0.156862 0,0.313725c0,0.156862 -0.05546,0.258266 0,0.313726c0.055459,0.05546 0.174811,-0.057226 0.549019,-0.392159c0.330594,-0.295897 0.676497,-0.659891 1.019608,-0.941175c0.218692,-0.179283 0.549019,-0.235294 0.784313,-0.235294c0.313725,0 0.627451,0 0.862745,0c0.156863,0 0.470589,0.000002 0.705882,0.078432c0.235294,0.078432 0.478981,0.084784 0.784314,0.156862c0.341372,0.080587 0.604132,0.277754 0.862745,0.392157c0.295736,0.130825 0.539495,0.117134 0.784313,0.156862c0.309674,0.050253 0.630692,0.066452 0.941176,0.156864c0.238131,0.069344 0.5432,0.195885 0.941176,0.235292c0.078051,0.007729 0.23013,0.08975 0.392158,0.156864c0.229141,0.094913 0.396353,0.120823 0.549019,0.156862c0.170687,0.040295 0.289682,0.192846 0.392157,0.235294c0.072462,0.030016 0.084402,0.048416 0.156864,0.07843c0.204952,0.084894 0.359669,0.202808 0.470587,0.313726c0.05546,0.05546 0,0 -0.156862,-0.156862c-0.078432,-0.078432 -0.144882,-0.316967 -0.235294,-0.627451c-0.069344,-0.238131 -0.147556,-0.550997 -0.235294,-0.941177c-0.070946,-0.315502 -0.07843,-0.549019 -0.07843,-0.862745c0,-0.156862 -0.078432,-0.313725 -0.078432,-0.470589c0,-0.235292 -0.048418,-0.554989 -0.078432,-0.627451c-0.042446,-0.102474 -0.07843,-0.156862 -0.07843,-0.235292c0,-0.156864 0.038919,-0.228062 0.07843,-0.549021c0.028748,-0.233531 0.038704,-0.3042 0.078432,-0.549019c0.037691,-0.232256 0.114416,-0.446545 0.156862,-0.54902c0.060028,-0.144923 0.061951,-0.241446 0.156864,-0.470589c0.067114,-0.162027 0.189837,-0.320457 0.235292,-0.470588c0.081949,-0.270656 0.235294,-0.392158 0.313726,-0.470589c0.078432,-0.078431 0.101402,-0.101403 0.156862,-0.156862c0.05546,-0.05546 0.169355,-0.047895 0.392157,-0.156863c0.254032,-0.124244 0.470589,-0.235294 0.627451,-0.392157c0.078432,-0.078431 0.235294,-0.235294 0.392159,-0.313725c0.156862,-0.078431 0.223742,-0.24887 0.313725,-0.313725c0.142273,-0.102545 0.20528,-0.162833 0.235294,-0.235294c0.042448,-0.102476 0.156862,-0.156862 0.235294,-0.235294c0.07843,-0.078431 0.179834,-0.101402 0.235294,-0.156862c0.05546,-0.055459 0.0844,-0.126849 0.156862,-0.156863c0.102476,-0.042446 0,-0.078431 -0.156862,-0.078431c-0.313726,0 -0.635843,0.07208 -0.941177,0c-0.341372,-0.080587 -0.588726,-0.287481 -0.784313,-0.392157c-0.352602,-0.188706 -0.627451,-0.078431 -0.862745,-0.078431c-0.078432,0 -0.147337,-0.038703 -0.392157,-0.078432c-0.309675,-0.050254 -0.627451,0 -0.784313,0c-0.156864,0 -0.313726,0 -0.470589,0c-0.235294,0 -0.581339,0.080898 -0.862745,-0.078431c-0.096521,-0.054649 -0.313726,-0.235293 -0.54902,-0.470588c-0.156862,-0.156863 -0.267914,-0.294988 -0.392157,-0.54902c-0.108969,-0.222802 -0.165951,-0.389321 -0.235294,-0.627451c-0.090413,-0.310485 -0.140381,-0.555172 -0.235294,-0.784314c-0.067114,-0.162027 -0.101066,-0.381825 -0.235294,-0.705882c-0.094913,-0.229142 -0.087519,-0.310889 -0.156862,-0.54902c-0.090413,-0.310484 -0.126326,-0.561512 -0.235294,-0.784314c-0.124243,-0.254033 -0.225698,-0.397334 -0.313725,-0.54902c-0.141938,-0.244586 -0.235294,-0.470588 -0.392157,-0.627451c-0.078431,-0.078431 -0.066881,-0.170438 -0.156863,-0.235294c-0.142274,-0.102545 -0.080529,-0.217275 -0.156862,-0.235294c-0.170687,-0.040293 -0.038662,0.332079 -0.235294,0.705883c-0.263304,0.500548 -0.4412,0.816754 -0.784313,1.098039c-0.218693,0.179285 -0.398288,0.384198 -0.705883,0.627451c-0.480478,0.379973 -0.662784,0.584352 -0.862745,0.784314c-0.199961,0.199961 -0.338056,0.370118 -0.549019,0.627451c-0.179284,0.218692 -0.392158,0.470588 -0.54902,0.627451c-0.313725,0.313725 -0.527372,0.566488 -0.784314,0.862744c-0.218022,0.251382 -0.50344,0.346578 -0.627451,0.470589c-0.124012,0.124011 -0.398309,0.375674 -0.627451,0.470589c-0.162028,0.067114 -0.313725,0.156862 -0.470588,0.156862c-0.235294,0 -0.627451,-0.235294 -0.627451,0c0,0.078432 0.759184,-0.315714 1.647059,-0.54902c0.922831,-0.242491 1.669949,-0.22732 2.117647,-0.392157c0.429165,-0.158012 0.705882,-0.313725 0.941176,-0.313725c0.156863,0 0.470589,0.078431 0.627451,0.392157c0.156863,0.313725 0.168753,0.787851 0,1.333334c-0.146603,0.473885 -0.430485,1.076342 -0.54902,2.039215c-0.067081,0.544907 0.022973,0.728855 0.078432,0.784314c0.055459,0.055459 0.258323,-0.135413 0.549019,-0.470589c0.513884,-0.592513 0.829783,-1.246314 0.941176,-1.960784c0.133452,-0.855962 0.313531,-1.32552 0.156863,-1.333333c-0.787247,-0.039265 -0.274408,2.11846 -0.235294,3.058823c0.039249,0.943624 0.392157,1.411765 0.705882,1.725491c0.313725,0.313725 0.540279,0.642674 0.941176,0.862744c0.307475,0.168787 0.660655,0.201708 1.09804,-0.156862c0.343112,-0.281285 0.662621,-0.612207 0.784314,-0.941176c0.112196,-0.303294 -0.043623,-0.656868 -0.313725,-0.941176c-0.421914,-0.444105 -0.54902,-0.470588 -0.784314,-0.470588c-0.235294,0 -0.521671,0.179373 -0.784314,0.470588c-0.306292,0.339612 -0.54097,1.122189 -0.392157,1.568627c0.124011,0.372033 0.52757,0.650481 0.862745,0.941176c0.296257,0.256941 0.570752,0.374275 0.862745,0.235294c0.354093,-0.168539 0.926446,-1.410874 0.862745,-2.588235c-0.073147,-1.351958 -0.522368,-2.708554 -1.09804,-4c-0.400113,-0.897604 -1.001721,-1.578004 -1.254902,-2.039216c-0.220071,-0.400898 -0.578145,-0.842882 -0.784314,-1.17647c-0.184403,-0.298371 -0.273432,-0.535196 -0.313725,-0.705883c-0.01802,-0.076334 0,-0.156863 0,-0.313725c0,-0.078432 0,-0.156863 0,-0.235294c0,-0.078431 0,-0.156863 0,-0.235294c0,0 0.009583,-0.077844 0,0c-0.039512,0.320958 -0.199039,1.339532 -0.078431,2.509804c0.197117,1.912638 0.734322,2.892215 1.09804,4c0.255436,0.777987 0.481136,1.220901 0.705882,1.490195c0.251274,0.301079 0.368044,0.406746 0.470589,0.54902c0.064856,0.089982 0.313725,0.235294 0.470588,0.392158c0.235293,0.235294 0.514818,0.499429 0.784314,0.784313c0.194336,0.205433 0.291305,0.48719 0.470589,0.705882c0.210962,0.257334 0.283188,0.483082 0.392157,0.705883c0.124243,0.254032 0.235294,0.470589 0.313725,0.627451c0.078432,0.156862 0.165949,0.467752 0.235294,0.705883c0.090414,0.310484 0.114416,0.524975 0.156862,0.627451c0.030014,0.07246 0.078432,0.156862 0.078432,0.235292c0,0.078432 0,0.156864 0,0.235294c0,0 0.035984,0.054388 0.078432,0.156864c0.030014,0.07246 0.054386,0.192846 0.156862,0.235292c0.07246,0.030014 0.101402,-0.05546 0.156862,0c0.05546,0.05546 0.078432,0.078432 0.078432,0.078432l0.07843,0.078432l0,0l0.078432,0" id="svg_26" fill-opacity="null" stroke-opacity="null" stroke-width="4" stroke="#7e94aa" fill="none"/>
  <polyline stroke-linecap="round" id="svg_27" points="4.147058823529413,11.598039215686274 4.225490196078432,11.519607843137255 " fill-opacity="null" stroke-opacity="null" stroke-width="4" stroke="#7e94aa" fill="none"/>
 </g>
</svg>